<svg xmlns="http://www.w3.org/2000/svg" version="1.1" xmlns:xlink="http://www.w3.org/1999/xlink" xmlns:svgjs="http://svgjs.dev/svgjs" width="1440" height="560" preserveAspectRatio="none" viewBox="0 0 1440 560"><g mask="url(&quot;#SvgjsMask3123&quot;)" fill="none"><rect width="1440" height="560" x="0" y="0" fill="url(&quot;#SvgjsLinearGradient3124&quot;)"></rect><path d="M1296 176L1295 -230" stroke-width="6" stroke="url(&quot;#SvgjsLinearGradient3125&quot;)" stroke-linecap="round" class="Up"></path><path d="M795 57L794 -223" stroke-width="10" stroke="url(&quot;#SvgjsLinearGradient3126&quot;)" stroke-linecap="round" class="Down"></path><path d="M569 87L568 -86" stroke-width="6" stroke="url(&quot;#SvgjsLinearGradient3125&quot;)" stroke-linecap="round" class="Up"></path><path d="M524 62L523 -351" stroke-width="10" stroke="url(&quot;#SvgjsLinearGradient3125&quot;)" stroke-linecap="round" class="Up"></path><path d="M829 277L828 649" stroke-width="10" stroke="url(&quot;#SvgjsLinearGradient3126&quot;)" stroke-linecap="round" class="Down"></path><path d="M518 429L517 840" stroke-width="8" stroke="url(&quot;#SvgjsLinearGradient3125&quot;)" stroke-linecap="round" class="Up"></path><path d="M148 411L147 242" stroke-width="8" stroke="url(&quot;#SvgjsLinearGradient3126&quot;)" stroke-linecap="round" class="Down"></path><path d="M651 271L650 -140" stroke-width="6" stroke="url(&quot;#SvgjsLinearGradient3125&quot;)" stroke-linecap="round" class="Up"></path><path d="M29 281L28 70" stroke-width="10" stroke="url(&quot;#SvgjsLinearGradient3126&quot;)" stroke-linecap="round" class="Down"></path><path d="M1188 116L1187 -250" stroke-width="8" stroke="url(&quot;#SvgjsLinearGradient3126&quot;)" stroke-linecap="round" class="Down"></path><path d="M129 34L128 -335" stroke-width="8" stroke="url(&quot;#SvgjsLinearGradient3126&quot;)" stroke-linecap="round" class="Down"></path><path d="M1285 364L1284 185" stroke-width="6" stroke="url(&quot;#SvgjsLinearGradient3126&quot;)" stroke-linecap="round" class="Down"></path><path d="M840 194L839 521" stroke-width="8" stroke="url(&quot;#SvgjsLinearGradient3125&quot;)" stroke-linecap="round" class="Up"></path><path d="M101 106L100 427" stroke-width="6" stroke="url(&quot;#SvgjsLinearGradient3125&quot;)" stroke-linecap="round" class="Up"></path><path d="M443 146L442 552" stroke-width="10" stroke="url(&quot;#SvgjsLinearGradient3126&quot;)" stroke-linecap="round" class="Down"></path><path d="M151 237L150 -147" stroke-width="8" stroke="url(&quot;#SvgjsLinearGradient3125&quot;)" stroke-linecap="round" class="Up"></path><path d="M102 553L101 205" stroke-width="8" stroke="url(&quot;#SvgjsLinearGradient3126&quot;)" stroke-linecap="round" class="Down"></path><path d="M1132 81L1131 -332" stroke-width="8" stroke="url(&quot;#SvgjsLinearGradient3126&quot;)" stroke-linecap="round" class="Down"></path><path d="M258 509L257 769" stroke-width="6" stroke="url(&quot;#SvgjsLinearGradient3125&quot;)" stroke-linecap="round" class="Up"></path><path d="M1299 206L1298 -155" stroke-width="6" stroke="url(&quot;#SvgjsLinearGradient3125&quot;)" stroke-linecap="round" class="Up"></path><path d="M117 159L116 409" stroke-width="6" stroke="url(&quot;#SvgjsLinearGradient3126&quot;)" stroke-linecap="round" class="Down"></path><path d="M1066 432L1065 129" stroke-width="6" stroke="url(&quot;#SvgjsLinearGradient3125&quot;)" stroke-linecap="round" class="Up"></path><path d="M78 541L77 388" stroke-width="10" stroke="url(&quot;#SvgjsLinearGradient3126&quot;)" stroke-linecap="round" class="Down"></path><path d="M792 350L791 122" stroke-width="8" stroke="url(&quot;#SvgjsLinearGradient3125&quot;)" stroke-linecap="round" class="Up"></path><path d="M545 447L544 140" stroke-width="8" stroke="url(&quot;#SvgjsLinearGradient3126&quot;)" stroke-linecap="round" class="Down"></path><path d="M1125 336L1124 107" stroke-width="6" stroke="url(&quot;#SvgjsLinearGradient3125&quot;)" stroke-linecap="round" class="Up"></path><path d="M1103 125L1102 -265" stroke-width="6" stroke="url(&quot;#SvgjsLinearGradient3126&quot;)" stroke-linecap="round" class="Down"></path><path d="M574 472L573 696" stroke-width="10" stroke="url(&quot;#SvgjsLinearGradient3126&quot;)" stroke-linecap="round" class="Down"></path><path d="M462 369L461 34" stroke-width="6" stroke="url(&quot;#SvgjsLinearGradient3125&quot;)" stroke-linecap="round" class="Up"></path><path d="M1036 92L1035 -60" stroke-width="10" stroke="url(&quot;#SvgjsLinearGradient3125&quot;)" stroke-linecap="round" class="Up"></path><path d="M1091 103L1090 -68" stroke-width="8" stroke="url(&quot;#SvgjsLinearGradient3126&quot;)" stroke-linecap="round" class="Down"></path><path d="M1109 245L1108 26" stroke-width="10" stroke="url(&quot;#SvgjsLinearGradient3125&quot;)" stroke-linecap="round" class="Up"></path><path d="M1201 89L1200 467" stroke-width="6" stroke="url(&quot;#SvgjsLinearGradient3126&quot;)" stroke-linecap="round" class="Down"></path><path d="M45 7L44 254" stroke-width="10" stroke="url(&quot;#SvgjsLinearGradient3125&quot;)" stroke-linecap="round" class="Up"></path><path d="M1059 556L1058 742" stroke-width="8" stroke="url(&quot;#SvgjsLinearGradient3126&quot;)" stroke-linecap="round" class="Down"></path><path d="M235 55L234 250" stroke-width="10" stroke="url(&quot;#SvgjsLinearGradient3125&quot;)" stroke-linecap="round" class="Up"></path></g><defs><mask id="SvgjsMask3123"><rect width="1440" height="560" fill="#ffffff"></rect></mask><linearGradient x1="15.28%" y1="-39.29%" x2="84.72%" y2="139.29%" gradientUnits="userSpaceOnUse" id="SvgjsLinearGradient3124"><stop stop-color="#0e2a47" offset="0"></stop><stop stop-color="rgba(0, 141, 158, 1)" offset="1"></stop></linearGradient><linearGradient x1="0%" y1="100%" x2="0%" y2="0%" id="SvgjsLinearGradient3125"><stop stop-color="rgba(28, 83, 142, 0)" offset="0"></stop><stop stop-color="#1c538e" offset="1"></stop></linearGradient><linearGradient x1="0%" y1="0%" x2="0%" y2="100%" id="SvgjsLinearGradient3126"><stop stop-color="rgba(28, 83, 142, 0)" offset="0"></stop><stop stop-color="#1c538e" offset="1"></stop></linearGradient></defs></svg>