<svg xmlns="http://www.w3.org/2000/svg" version="1.1" xmlns:xlink="http://www.w3.org/1999/xlink" xmlns:svgjs="http://svgjs.dev/svgjs" width="1440" height="560" preserveAspectRatio="none" viewBox="0 0 1440 560"><g mask="url(&quot;#SvgjsMask1875&quot;)" fill="none"><rect width="1440" height="560" x="0" y="0" fill="url(&quot;#SvgjsLinearGradient1876&quot;)"></rect><path d="M-46.68 373.25L-46.68 373.25" stroke="#132e65" stroke-width="1.5"></path><path d="M-46.68 373.25L-86.05 503.85" stroke="#132e65" stroke-width="1.5"></path><path d="M-46.68 373.25L96.38 351.57" stroke="#132e65" stroke-width="1.5"></path><path d="M-46.68 373.25L90.59 494.31" stroke="#132e65" stroke-width="1.5"></path><path d="M-46.68 373.25L211.64 381.53" stroke="#132e65" stroke-width="1.5"></path><path d="M-46.68 373.25L-106.82 679.26" stroke="#132e65" stroke-width="1.5"></path><path d="M-46.68 373.25L242.99 489.98" stroke="#132e65" stroke-width="1.5"></path><path d="M-86.05 503.85L-86.05 503.85" stroke="#132e65" stroke-width="1.5"></path><path d="M-86.05 503.85L-106.82 679.26" stroke="#132e65" stroke-width="1.5"></path><path d="M-86.05 503.85L90.59 494.31" stroke="#132e65" stroke-width="1.5"></path><path d="M-86.05 503.85L38.36 693.96" stroke="#132e65" stroke-width="1.5"></path><path d="M-86.05 503.85L96.38 351.57" stroke="#132e65" stroke-width="1.5"></path><path d="M-86.05 503.85L211.64 381.53" stroke="#132e65" stroke-width="1.5"></path><path d="M-106.82 679.26L-106.82 679.26" stroke="#132e65" stroke-width="1.5"></path><path d="M-106.82 679.26L38.36 693.96" stroke="#132e65" stroke-width="1.5"></path><path d="M-106.82 679.26L90.59 494.31" stroke="#132e65" stroke-width="1.5"></path><path d="M-106.82 679.26L207.63 692.59" stroke="#132e65" stroke-width="1.5"></path><path d="M-106.82 679.26L96.38 351.57" stroke="#132e65" stroke-width="1.5"></path><path d="M96.38 351.57L96.38 351.57" stroke="#132e65" stroke-width="1.5"></path><path d="M96.38 351.57L211.64 381.53" stroke="#132e65" stroke-width="1.5"></path><path d="M96.38 351.57L90.59 494.31" stroke="#132e65" stroke-width="1.5"></path><path d="M90.59 494.31L90.59 494.31" stroke="#132e65" stroke-width="1.5"></path><path d="M90.59 494.31L242.99 489.98" stroke="#132e65" stroke-width="1.5"></path><path d="M90.59 494.31L211.64 381.53" stroke="#132e65" stroke-width="1.5"></path><path d="M38.36 693.96L38.36 693.96" stroke="#132e65" stroke-width="1.5"></path><path d="M211.64 381.53L211.64 381.53" stroke="#132e65" stroke-width="1.5"></path><path d="M211.64 381.53L242.99 489.98" stroke="#132e65" stroke-width="1.5"></path><path d="M242.99 489.98L242.99 489.98" stroke="#132e65" stroke-width="1.5"></path><path d="M242.99 489.98L345.53 540.4" stroke="#132e65" stroke-width="1.5"></path><path d="M207.63 692.59L207.63 692.59" stroke="#132e65" stroke-width="1.5"></path><path d="M207.63 692.59L38.36 693.96" stroke="#132e65" stroke-width="1.5"></path><path d="M207.63 692.59L399.74 700.04" stroke="#132e65" stroke-width="1.5"></path><path d="M207.63 692.59L345.53 540.4" stroke="#132e65" stroke-width="1.5"></path><path d="M207.63 692.59L242.99 489.98" stroke="#132e65" stroke-width="1.5"></path><path d="M207.63 692.59L90.59 494.31" stroke="#132e65" stroke-width="1.5"></path><path d="M207.63 692.59L211.64 381.53" stroke="#132e65" stroke-width="1.5"></path><path d="M395.95 371.56L395.95 371.56" stroke="#132e65" stroke-width="1.5"></path><path d="M395.95 371.56L546.8 354.25" stroke="#132e65" stroke-width="1.5"></path><path d="M395.95 371.56L526.86 488.5" stroke="#132e65" stroke-width="1.5"></path><path d="M395.95 371.56L345.53 540.4" stroke="#132e65" stroke-width="1.5"></path><path d="M395.95 371.56L211.64 381.53" stroke="#132e65" stroke-width="1.5"></path><path d="M395.95 371.56L242.99 489.98" stroke="#132e65" stroke-width="1.5"></path><path d="M345.53 540.4L345.53 540.4" stroke="#132e65" stroke-width="1.5"></path><path d="M345.53 540.4L399.74 700.04" stroke="#132e65" stroke-width="1.5"></path><path d="M399.74 700.04L399.74 700.04" stroke="#132e65" stroke-width="1.5"></path><path d="M399.74 700.04L546.96 655.68" stroke="#132e65" stroke-width="1.5"></path><path d="M546.8 354.25L546.8 354.25" stroke="#132e65" stroke-width="1.5"></path><path d="M546.8 354.25L526.86 488.5" stroke="#132e65" stroke-width="1.5"></path><path d="M526.86 488.5L526.86 488.5" stroke="#132e65" stroke-width="1.5"></path><path d="M526.86 488.5L546.96 655.68" stroke="#132e65" stroke-width="1.5"></path><path d="M526.86 488.5L697.59 551.15" stroke="#132e65" stroke-width="1.5"></path><path d="M546.96 655.68L546.96 655.68" stroke="#132e65" stroke-width="1.5"></path><path d="M546.96 655.68L697.59 551.15" stroke="#132e65" stroke-width="1.5"></path><path d="M546.96 655.68L345.53 540.4" stroke="#132e65" stroke-width="1.5"></path><path d="M546.96 655.68L820.91 547.1" stroke="#132e65" stroke-width="1.5"></path><path d="M696.78 259.53L696.78 259.53" stroke="#132e65" stroke-width="1.5"></path><path d="M696.78 259.53L686.64 375.18" stroke="#132e65" stroke-width="1.5"></path><path d="M696.78 259.53L848.35 254.79" stroke="#132e65" stroke-width="1.5"></path><path d="M686.64 375.18L686.64 375.18" stroke="#132e65" stroke-width="1.5"></path><path d="M686.64 375.18L546.8 354.25" stroke="#132e65" stroke-width="1.5"></path><path d="M686.64 375.18L697.59 551.15" stroke="#132e65" stroke-width="1.5"></path><path d="M686.64 375.18L526.86 488.5" stroke="#132e65" stroke-width="1.5"></path><path d="M686.64 375.18L848.35 254.79" stroke="#132e65" stroke-width="1.5"></path><path d="M697.59 551.15L697.59 551.15" stroke="#132e65" stroke-width="1.5"></path><path d="M697.59 551.15L820.91 547.1" stroke="#132e65" stroke-width="1.5"></path><path d="M848.35 254.79L848.35 254.79" stroke="#132e65" stroke-width="1.5"></path><path d="M848.35 254.79L1001.05 197.28" stroke="#132e65" stroke-width="1.5"></path><path d="M820.91 547.1L820.91 547.1" stroke="#132e65" stroke-width="1.5"></path><path d="M820.91 547.1L859.2 691.87" stroke="#132e65" stroke-width="1.5"></path><path d="M820.91 547.1L965.54 702.11" stroke="#132e65" stroke-width="1.5"></path><path d="M859.2 691.87L859.2 691.87" stroke="#132e65" stroke-width="1.5"></path><path d="M859.2 691.87L965.54 702.11" stroke="#132e65" stroke-width="1.5"></path><path d="M859.2 691.87L697.59 551.15" stroke="#132e65" stroke-width="1.5"></path><path d="M859.2 691.87L1096.76 522.93" stroke="#132e65" stroke-width="1.5"></path><path d="M859.2 691.87L546.96 655.68" stroke="#132e65" stroke-width="1.5"></path><path d="M859.2 691.87L995.17 402.08" stroke="#132e65" stroke-width="1.5"></path><path d="M969.53 -50.8L969.53 -50.8" stroke="#132e65" stroke-width="1.5"></path><path d="M969.53 -50.8L1004.7 62.5" stroke="#132e65" stroke-width="1.5"></path><path d="M969.53 -50.8L1130.88 -76.82" stroke="#132e65" stroke-width="1.5"></path><path d="M969.53 -50.8L1094.49 103.33" stroke="#132e65" stroke-width="1.5"></path><path d="M969.53 -50.8L1001.05 197.28" stroke="#132e65" stroke-width="1.5"></path><path d="M969.53 -50.8L1267.45 -76.53" stroke="#132e65" stroke-width="1.5"></path><path d="M1004.7 62.5L1004.7 62.5" stroke="#132e65" stroke-width="1.5"></path><path d="M1004.7 62.5L1094.49 103.33" stroke="#132e65" stroke-width="1.5"></path><path d="M1001.05 197.28L1001.05 197.28" stroke="#132e65" stroke-width="1.5"></path><path d="M1001.05 197.28L1094.49 103.33" stroke="#132e65" stroke-width="1.5"></path><path d="M1001.05 197.28L1004.7 62.5" stroke="#132e65" stroke-width="1.5"></path><path d="M1001.05 197.28L1135.88 261.05" stroke="#132e65" stroke-width="1.5"></path><path d="M995.17 402.08L995.17 402.08" stroke="#132e65" stroke-width="1.5"></path><path d="M995.17 402.08L1116.1 343.72" stroke="#132e65" stroke-width="1.5"></path><path d="M995.17 402.08L1096.76 522.93" stroke="#132e65" stroke-width="1.5"></path><path d="M995.17 402.08L1135.88 261.05" stroke="#132e65" stroke-width="1.5"></path><path d="M995.17 402.08L1001.05 197.28" stroke="#132e65" stroke-width="1.5"></path><path d="M965.54 702.11L965.54 702.11" stroke="#132e65" stroke-width="1.5"></path><path d="M965.54 702.11L1096.76 522.93" stroke="#132e65" stroke-width="1.5"></path><path d="M965.54 702.11L995.17 402.08" stroke="#132e65" stroke-width="1.5"></path><path d="M1130.88 -76.82L1130.88 -76.82" stroke="#132e65" stroke-width="1.5"></path><path d="M1130.88 -76.82L1267.45 -76.53" stroke="#132e65" stroke-width="1.5"></path><path d="M1130.88 -76.82L1094.49 103.33" stroke="#132e65" stroke-width="1.5"></path><path d="M1130.88 -76.82L1004.7 62.5" stroke="#132e65" stroke-width="1.5"></path><path d="M1094.49 103.33L1094.49 103.33" stroke="#132e65" stroke-width="1.5"></path><path d="M1094.49 103.33L1135.88 261.05" stroke="#132e65" stroke-width="1.5"></path><path d="M1094.49 103.33L1237.82 196.55" stroke="#132e65" stroke-width="1.5"></path><path d="M1135.88 261.05L1135.88 261.05" stroke="#132e65" stroke-width="1.5"></path><path d="M1135.88 261.05L1116.1 343.72" stroke="#132e65" stroke-width="1.5"></path><path d="M1135.88 261.05L1237.82 196.55" stroke="#132e65" stroke-width="1.5"></path><path d="M1135.88 261.05L1242.74 382.71" stroke="#132e65" stroke-width="1.5"></path><path d="M1116.1 343.72L1116.1 343.72" stroke="#132e65" stroke-width="1.5"></path><path d="M1116.1 343.72L1242.74 382.71" stroke="#132e65" stroke-width="1.5"></path><path d="M1116.1 343.72L1096.76 522.93" stroke="#132e65" stroke-width="1.5"></path><path d="M1116.1 343.72L1001.05 197.28" stroke="#132e65" stroke-width="1.5"></path><path d="M1096.76 522.93L1096.76 522.93" stroke="#132e65" stroke-width="1.5"></path><path d="M1096.76 522.93L1291.54 544.9" stroke="#132e65" stroke-width="1.5"></path><path d="M1096.76 522.93L1242.74 382.71" stroke="#132e65" stroke-width="1.5"></path><path d="M1267.45 -76.53L1267.45 -76.53" stroke="#132e65" stroke-width="1.5"></path><path d="M1267.45 -76.53L1453.81 -69.32" stroke="#132e65" stroke-width="1.5"></path><path d="M1267.45 -76.53L1278.29 112.4" stroke="#132e65" stroke-width="1.5"></path><path d="M1267.45 -76.53L1094.49 103.33" stroke="#132e65" stroke-width="1.5"></path><path d="M1267.45 -76.53L1442.34 104.23" stroke="#132e65" stroke-width="1.5"></path><path d="M1278.29 112.4L1278.29 112.4" stroke="#132e65" stroke-width="1.5"></path><path d="M1278.29 112.4L1237.82 196.55" stroke="#132e65" stroke-width="1.5"></path><path d="M1278.29 112.4L1442.34 104.23" stroke="#132e65" stroke-width="1.5"></path><path d="M1278.29 112.4L1094.49 103.33" stroke="#132e65" stroke-width="1.5"></path><path d="M1237.82 196.55L1237.82 196.55" stroke="#132e65" stroke-width="1.5"></path><path d="M1242.74 382.71L1242.74 382.71" stroke="#132e65" stroke-width="1.5"></path><path d="M1291.54 544.9L1291.54 544.9" stroke="#132e65" stroke-width="1.5"></path><path d="M1291.54 544.9L1404.19 521.48" stroke="#132e65" stroke-width="1.5"></path><path d="M1291.54 544.9L1267.43 704.46" stroke="#132e65" stroke-width="1.5"></path><path d="M1267.43 704.46L1267.43 704.46" stroke="#132e65" stroke-width="1.5"></path><path d="M1267.43 704.46L1415.3 703.81" stroke="#132e65" stroke-width="1.5"></path><path d="M1267.43 704.46L1404.19 521.48" stroke="#132e65" stroke-width="1.5"></path><path d="M1267.43 704.46L1096.76 522.93" stroke="#132e65" stroke-width="1.5"></path><path d="M1453.81 -69.32L1453.81 -69.32" stroke="#132e65" stroke-width="1.5"></path><path d="M1453.81 -69.32L1568.36 -38.14" stroke="#132e65" stroke-width="1.5"></path><path d="M1453.81 -69.32L1442.34 104.23" stroke="#132e65" stroke-width="1.5"></path><path d="M1453.81 -69.32L1592.8 46.98" stroke="#132e65" stroke-width="1.5"></path><path d="M1442.34 104.23L1442.34 104.23" stroke="#132e65" stroke-width="1.5"></path><path d="M1442.34 104.23L1452.04 196.61" stroke="#132e65" stroke-width="1.5"></path><path d="M1442.34 104.23L1592.8 46.98" stroke="#132e65" stroke-width="1.5"></path><path d="M1442.34 104.23L1577.17 219.54" stroke="#132e65" stroke-width="1.5"></path><path d="M1452.04 196.61L1452.04 196.61" stroke="#132e65" stroke-width="1.5"></path><path d="M1452.04 196.61L1577.17 219.54" stroke="#132e65" stroke-width="1.5"></path><path d="M1410.93 361.46L1410.93 361.46" stroke="#132e65" stroke-width="1.5"></path><path d="M1410.93 361.46L1404.19 521.48" stroke="#132e65" stroke-width="1.5"></path><path d="M1410.93 361.46L1567 399.25" stroke="#132e65" stroke-width="1.5"></path><path d="M1410.93 361.46L1242.74 382.71" stroke="#132e65" stroke-width="1.5"></path><path d="M1410.93 361.46L1452.04 196.61" stroke="#132e65" stroke-width="1.5"></path><path d="M1404.19 521.48L1404.19 521.48" stroke="#132e65" stroke-width="1.5"></path><path d="M1404.19 521.48L1566.28 500.97" stroke="#132e65" stroke-width="1.5"></path><path d="M1404.19 521.48L1415.3 703.81" stroke="#132e65" stroke-width="1.5"></path><path d="M1415.3 703.81L1415.3 703.81" stroke="#132e65" stroke-width="1.5"></path><path d="M1415.3 703.81L1538.5 662.16" stroke="#132e65" stroke-width="1.5"></path><path d="M1568.36 -38.14L1568.36 -38.14" stroke="#132e65" stroke-width="1.5"></path><path d="M1568.36 -38.14L1592.8 46.98" stroke="#132e65" stroke-width="1.5"></path><path d="M1568.36 -38.14L1442.34 104.23" stroke="#132e65" stroke-width="1.5"></path><path d="M1568.36 -38.14L1577.17 219.54" stroke="#132e65" stroke-width="1.5"></path><path d="M1568.36 -38.14L1452.04 196.61" stroke="#132e65" stroke-width="1.5"></path><path d="M1592.8 46.98L1592.8 46.98" stroke="#132e65" stroke-width="1.5"></path><path d="M1592.8 46.98L1577.17 219.54" stroke="#132e65" stroke-width="1.5"></path><path d="M1592.8 46.98L1452.04 196.61" stroke="#132e65" stroke-width="1.5"></path><path d="M1592.8 46.98L1278.29 112.4" stroke="#132e65" stroke-width="1.5"></path><path d="M1577.17 219.54L1577.17 219.54" stroke="#132e65" stroke-width="1.5"></path><path d="M1577.17 219.54L1567 399.25" stroke="#132e65" stroke-width="1.5"></path><path d="M1567 399.25L1567 399.25" stroke="#132e65" stroke-width="1.5"></path><path d="M1567 399.25L1566.28 500.97" stroke="#132e65" stroke-width="1.5"></path><path d="M1566.28 500.97L1566.28 500.97" stroke="#132e65" stroke-width="1.5"></path><path d="M1566.28 500.97L1538.5 662.16" stroke="#132e65" stroke-width="1.5"></path><path d="M1538.5 662.16L1538.5 662.16" stroke="#132e65" stroke-width="1.5"></path><circle r="5" cx="-46.68" cy="373.25" fill="#132e65"></circle><circle r="5" cx="-86.05" cy="503.85" fill="#132e65"></circle><circle r="5" cx="-106.82" cy="679.26" fill="#132e65"></circle><circle r="5" cx="96.38" cy="351.57" fill="#132e65"></circle><circle r="5" cx="90.59" cy="494.31" fill="#132e65"></circle><circle r="5" cx="38.36" cy="693.96" fill="#132e65"></circle><circle r="5" cx="211.64" cy="381.53" fill="#132e65"></circle><circle r="5" cx="242.99" cy="489.98" fill="#132e65"></circle><circle r="5" cx="207.63" cy="692.59" fill="#132e65"></circle><circle r="5" cx="395.95" cy="371.56" fill="#132e65"></circle><circle r="5" cx="345.53" cy="540.4" fill="#132e65"></circle><circle r="5" cx="399.74" cy="700.04" fill="#132e65"></circle><circle r="5" cx="546.8" cy="354.25" fill="#132e65"></circle><circle r="5" cx="526.86" cy="488.5" fill="#132e65"></circle><circle r="5" cx="546.96" cy="655.68" fill="#132e65"></circle><circle r="5" cx="696.78" cy="259.53" fill="#132e65"></circle><circle r="5" cx="686.64" cy="375.18" fill="#132e65"></circle><circle r="5" cx="697.59" cy="551.15" fill="#132e65"></circle><circle r="5" cx="848.35" cy="254.79" fill="#132e65"></circle><circle r="5" cx="820.91" cy="547.1" fill="#132e65"></circle><circle r="5" cx="859.2" cy="691.87" fill="#132e65"></circle><circle r="5" cx="969.53" cy="-50.8" fill="#132e65"></circle><circle r="5" cx="1004.7" cy="62.5" fill="#132e65"></circle><circle r="5" cx="1001.05" cy="197.28" fill="#132e65"></circle><circle r="5" cx="995.17" cy="402.08" fill="#132e65"></circle><circle r="5" cx="965.54" cy="702.11" fill="#132e65"></circle><circle r="5" cx="1130.88" cy="-76.82" fill="#132e65"></circle><circle r="5" cx="1094.49" cy="103.33" fill="#132e65"></circle><circle r="5" cx="1135.88" cy="261.05" fill="#132e65"></circle><circle r="5" cx="1116.1" cy="343.72" fill="#132e65"></circle><circle r="5" cx="1096.76" cy="522.93" fill="#132e65"></circle><circle r="5" cx="1267.45" cy="-76.53" fill="#132e65"></circle><circle r="5" cx="1278.29" cy="112.4" fill="#132e65"></circle><circle r="5" cx="1237.82" cy="196.55" fill="#132e65"></circle><circle r="5" cx="1242.74" cy="382.71" fill="#132e65"></circle><circle r="5" cx="1291.54" cy="544.9" fill="#132e65"></circle><circle r="5" cx="1267.43" cy="704.46" fill="#132e65"></circle><circle r="5" cx="1453.81" cy="-69.32" fill="#132e65"></circle><circle r="5" cx="1442.34" cy="104.23" fill="#132e65"></circle><circle r="5" cx="1452.04" cy="196.61" fill="#132e65"></circle><circle r="5" cx="1410.93" cy="361.46" fill="#132e65"></circle><circle r="5" cx="1404.19" cy="521.48" fill="#132e65"></circle><circle r="5" cx="1415.3" cy="703.81" fill="#132e65"></circle><circle r="5" cx="1568.36" cy="-38.14" fill="#132e65"></circle><circle r="5" cx="1592.8" cy="46.98" fill="#132e65"></circle><circle r="5" cx="1577.17" cy="219.54" fill="#132e65"></circle><circle r="5" cx="1567" cy="399.25" fill="#132e65"></circle><circle r="5" cx="1566.28" cy="500.97" fill="#132e65"></circle><circle r="5" cx="1538.5" cy="662.16" fill="#132e65"></circle><path d="M65.66 668.67L65.66 668.67" stroke="hsl(228.5, 77.2%, 51.5%)" stroke-width="1.5"></path><path d="M65.66 668.67L-38.79 666.57" stroke="hsl(228.5, 77.2%, 51.5%)" stroke-width="1.5"></path><path d="M65.66 668.67L204.52 672.69" stroke="hsl(228.5, 77.2%, 51.5%)" stroke-width="1.5"></path><path d="M339.27 641.82L339.27 641.82" stroke="hsl(228.5, 77.2%, 51.5%)" stroke-width="1.5"></path><path d="M339.27 641.82L204.52 672.69" stroke="hsl(228.5, 77.2%, 51.5%)" stroke-width="1.5"></path><path d="M339.27 641.82L210.28 544.5" stroke="hsl(228.5, 77.2%, 51.5%)" stroke-width="1.5"></path><path d="M491.37 560.14L491.37 560.14" stroke="hsl(228.5, 77.2%, 51.5%)" stroke-width="1.5"></path><path d="M491.37 560.14L538.7 658" stroke="hsl(228.5, 77.2%, 51.5%)" stroke-width="1.5"></path><path d="M491.37 560.14L653.02 533.1" stroke="hsl(228.5, 77.2%, 51.5%)" stroke-width="1.5"></path><path d="M491.37 560.14L339.27 641.82" stroke="hsl(228.5, 77.2%, 51.5%)" stroke-width="1.5"></path><path d="M491.37 560.14L659.44 639.75" stroke="hsl(228.5, 77.2%, 51.5%)" stroke-width="1.5"></path><path d="M491.37 560.14L210.28 544.5" stroke="hsl(228.5, 77.2%, 51.5%)" stroke-width="1.5"></path><path d="M659.44 639.75L659.44 639.75" stroke="hsl(228.5, 77.2%, 51.5%)" stroke-width="1.5"></path><path d="M659.44 639.75L653.02 533.1" stroke="hsl(228.5, 77.2%, 51.5%)" stroke-width="1.5"></path><path d="M659.44 639.75L538.7 658" stroke="hsl(228.5, 77.2%, 51.5%)" stroke-width="1.5"></path><path d="M659.44 639.75L806.46 657.86" stroke="hsl(228.5, 77.2%, 51.5%)" stroke-width="1.5"></path><path d="M659.44 639.75L816.27 504.42" stroke="hsl(228.5, 77.2%, 51.5%)" stroke-width="1.5"></path><path d="M843.59 403.06L843.59 403.06" stroke="hsl(228.5, 77.2%, 51.5%)" stroke-width="1.5"></path><path d="M843.59 403.06L816.27 504.42" stroke="hsl(228.5, 77.2%, 51.5%)" stroke-width="1.5"></path><path d="M843.59 403.06L953.4 350.58" stroke="hsl(228.5, 77.2%, 51.5%)" stroke-width="1.5"></path><path d="M843.59 403.06L961.7 506.99" stroke="hsl(228.5, 77.2%, 51.5%)" stroke-width="1.5"></path><path d="M843.59 403.06L653.02 533.1" stroke="hsl(228.5, 77.2%, 51.5%)" stroke-width="1.5"></path><path d="M843.59 403.06L1093.03 410.33" stroke="hsl(228.5, 77.2%, 51.5%)" stroke-width="1.5"></path><path d="M843.59 403.06L806.46 657.86" stroke="hsl(228.5, 77.2%, 51.5%)" stroke-width="1.5"></path><path d="M1093.03 410.33L1093.03 410.33" stroke="hsl(228.5, 77.2%, 51.5%)" stroke-width="1.5"></path><path d="M1093.03 410.33L1109.1 498.8" stroke="hsl(228.5, 77.2%, 51.5%)" stroke-width="1.5"></path><path d="M1093.03 410.33L953.4 350.58" stroke="hsl(228.5, 77.2%, 51.5%)" stroke-width="1.5"></path><path d="M1241.4 375.45L1241.4 375.45" stroke="hsl(228.5, 77.2%, 51.5%)" stroke-width="1.5"></path><path d="M1241.4 375.45L1277.19 504.85" stroke="hsl(228.5, 77.2%, 51.5%)" stroke-width="1.5"></path><path d="M1241.4 375.45L1093.03 410.33" stroke="hsl(228.5, 77.2%, 51.5%)" stroke-width="1.5"></path><path d="M1241.4 375.45L1412.48 399.02" stroke="hsl(228.5, 77.2%, 51.5%)" stroke-width="1.5"></path><path d="M1241.4 375.45L1307.69 214.1" stroke="hsl(228.5, 77.2%, 51.5%)" stroke-width="1.5"></path><path d="M1277.19 504.85L1277.19 504.85" stroke="hsl(228.5, 77.2%, 51.5%)" stroke-width="1.5"></path><path d="M1277.19 504.85L1395.86 534.95" stroke="hsl(228.5, 77.2%, 51.5%)" stroke-width="1.5"></path><path d="M1277.19 504.85L1109.1 498.8" stroke="hsl(228.5, 77.2%, 51.5%)" stroke-width="1.5"></path><path d="M1431.06 -38.25L1431.06 -38.25" stroke="hsl(228.5, 77.2%, 51.5%)" stroke-width="1.5"></path><path d="M1431.06 -38.25L1574.15 -53.62" stroke="hsl(228.5, 77.2%, 51.5%)" stroke-width="1.5"></path><path d="M1431.06 -38.25L1413.72 111.64" stroke="hsl(228.5, 77.2%, 51.5%)" stroke-width="1.5"></path><path d="M1431.06 -38.25L1550.89 101.89" stroke="hsl(228.5, 77.2%, 51.5%)" stroke-width="1.5"></path><path d="M1431.06 -38.25L1269.75 84.09" stroke="hsl(228.5, 77.2%, 51.5%)" stroke-width="1.5"></path><path d="M1413.72 111.64L1413.72 111.64" stroke="hsl(228.5, 77.2%, 51.5%)" stroke-width="1.5"></path><path d="M1413.72 111.64L1445.26 191.8" stroke="hsl(228.5, 77.2%, 51.5%)" stroke-width="1.5"></path><path d="M1413.72 111.64L1550.89 101.89" stroke="hsl(228.5, 77.2%, 51.5%)" stroke-width="1.5"></path><path d="M1413.72 111.64L1269.75 84.09" stroke="hsl(228.5, 77.2%, 51.5%)" stroke-width="1.5"></path><path d="M1413.72 111.64L1307.69 214.1" stroke="hsl(228.5, 77.2%, 51.5%)" stroke-width="1.5"></path><path d="M1413.72 111.64L1590.16 211.24" stroke="hsl(228.5, 77.2%, 51.5%)" stroke-width="1.5"></path><path d="M1412.48 399.02L1412.48 399.02" stroke="hsl(228.5, 77.2%, 51.5%)" stroke-width="1.5"></path><path d="M1412.48 399.02L1395.86 534.95" stroke="hsl(228.5, 77.2%, 51.5%)" stroke-width="1.5"></path><path d="M1412.48 399.02L1277.19 504.85" stroke="hsl(228.5, 77.2%, 51.5%)" stroke-width="1.5"></path><path d="M1395.86 534.95L1395.86 534.95" stroke="hsl(228.5, 77.2%, 51.5%)" stroke-width="1.5"></path><path d="M1395.86 534.95L1443.57 644.42" stroke="hsl(228.5, 77.2%, 51.5%)" stroke-width="1.5"></path><path d="M1395.86 534.95L1569.14 561.8" stroke="hsl(228.5, 77.2%, 51.5%)" stroke-width="1.5"></path><path d="M1395.86 534.95L1241.4 375.45" stroke="hsl(228.5, 77.2%, 51.5%)" stroke-width="1.5"></path><path d="M1395.86 534.95L1607.45 697.83" stroke="hsl(228.5, 77.2%, 51.5%)" stroke-width="1.5"></path><path d="M-102.1 502.92L-102.1 502.92" stroke="hsl(228.5, 77.2%, 51.5%)" stroke-width="1.5"></path><path d="M-102.1 502.92L71.74 508.98" stroke="hsl(228.5, 77.2%, 51.5%)" stroke-width="1.5"></path><path d="M-102.1 502.92L-38.79 666.57" stroke="hsl(228.5, 77.2%, 51.5%)" stroke-width="1.5"></path><path d="M-102.1 502.92L65.66 668.67" stroke="hsl(228.5, 77.2%, 51.5%)" stroke-width="1.5"></path><path d="M-102.1 502.92L210.28 544.5" stroke="hsl(228.5, 77.2%, 51.5%)" stroke-width="1.5"></path><path d="M-38.79 666.57L-38.79 666.57" stroke="hsl(228.5, 77.2%, 51.5%)" stroke-width="1.5"></path><path d="M-38.79 666.57L71.74 508.98" stroke="hsl(228.5, 77.2%, 51.5%)" stroke-width="1.5"></path><path d="M-38.79 666.57L204.52 672.69" stroke="hsl(228.5, 77.2%, 51.5%)" stroke-width="1.5"></path><path d="M-38.79 666.57L210.28 544.5" stroke="hsl(228.5, 77.2%, 51.5%)" stroke-width="1.5"></path><path d="M-38.79 666.57L339.27 641.82" stroke="hsl(228.5, 77.2%, 51.5%)" stroke-width="1.5"></path><path d="M71.74 508.98L71.74 508.98" stroke="hsl(228.5, 77.2%, 51.5%)" stroke-width="1.5"></path><path d="M71.74 508.98L210.28 544.5" stroke="hsl(228.5, 77.2%, 51.5%)" stroke-width="1.5"></path><path d="M71.74 508.98L65.66 668.67" stroke="hsl(228.5, 77.2%, 51.5%)" stroke-width="1.5"></path><path d="M210.28 544.5L210.28 544.5" stroke="hsl(228.5, 77.2%, 51.5%)" stroke-width="1.5"></path><path d="M210.28 544.5L204.52 672.69" stroke="hsl(228.5, 77.2%, 51.5%)" stroke-width="1.5"></path><path d="M204.52 672.69L204.52 672.69" stroke="hsl(228.5, 77.2%, 51.5%)" stroke-width="1.5"></path><path d="M204.52 672.69L71.74 508.98" stroke="hsl(228.5, 77.2%, 51.5%)" stroke-width="1.5"></path><path d="M204.52 672.69L491.37 560.14" stroke="hsl(228.5, 77.2%, 51.5%)" stroke-width="1.5"></path><path d="M538.7 658L538.7 658" stroke="hsl(228.5, 77.2%, 51.5%)" stroke-width="1.5"></path><path d="M653.02 533.1L653.02 533.1" stroke="hsl(228.5, 77.2%, 51.5%)" stroke-width="1.5"></path><path d="M816.27 504.42L816.27 504.42" stroke="hsl(228.5, 77.2%, 51.5%)" stroke-width="1.5"></path><path d="M816.27 504.42L961.7 506.99" stroke="hsl(228.5, 77.2%, 51.5%)" stroke-width="1.5"></path><path d="M816.27 504.42L806.46 657.86" stroke="hsl(228.5, 77.2%, 51.5%)" stroke-width="1.5"></path><path d="M816.27 504.42L653.02 533.1" stroke="hsl(228.5, 77.2%, 51.5%)" stroke-width="1.5"></path><path d="M816.27 504.42L953.4 350.58" stroke="hsl(228.5, 77.2%, 51.5%)" stroke-width="1.5"></path><path d="M806.46 657.86L806.46 657.86" stroke="hsl(228.5, 77.2%, 51.5%)" stroke-width="1.5"></path><path d="M953.4 350.58L953.4 350.58" stroke="hsl(228.5, 77.2%, 51.5%)" stroke-width="1.5"></path><path d="M953.4 350.58L961.7 506.99" stroke="hsl(228.5, 77.2%, 51.5%)" stroke-width="1.5"></path><path d="M961.7 506.99L961.7 506.99" stroke="hsl(228.5, 77.2%, 51.5%)" stroke-width="1.5"></path><path d="M1113.31 251.75L1113.31 251.75" stroke="hsl(228.5, 77.2%, 51.5%)" stroke-width="1.5"></path><path d="M1113.31 251.75L1093.03 410.33" stroke="hsl(228.5, 77.2%, 51.5%)" stroke-width="1.5"></path><path d="M1113.31 251.75L1241.4 375.45" stroke="hsl(228.5, 77.2%, 51.5%)" stroke-width="1.5"></path><path d="M1113.31 251.75L953.4 350.58" stroke="hsl(228.5, 77.2%, 51.5%)" stroke-width="1.5"></path><path d="M1109.1 498.8L1109.1 498.8" stroke="hsl(228.5, 77.2%, 51.5%)" stroke-width="1.5"></path><path d="M1109.1 498.8L961.7 506.99" stroke="hsl(228.5, 77.2%, 51.5%)" stroke-width="1.5"></path><path d="M1109.1 498.8L1132.51 653.11" stroke="hsl(228.5, 77.2%, 51.5%)" stroke-width="1.5"></path><path d="M1132.51 653.11L1132.51 653.11" stroke="hsl(228.5, 77.2%, 51.5%)" stroke-width="1.5"></path><path d="M1132.51 653.11L1277.19 504.85" stroke="hsl(228.5, 77.2%, 51.5%)" stroke-width="1.5"></path><path d="M1132.51 653.11L961.7 506.99" stroke="hsl(228.5, 77.2%, 51.5%)" stroke-width="1.5"></path><path d="M1269.75 84.09L1269.75 84.09" stroke="hsl(228.5, 77.2%, 51.5%)" stroke-width="1.5"></path><path d="M1269.75 84.09L1307.69 214.1" stroke="hsl(228.5, 77.2%, 51.5%)" stroke-width="1.5"></path><path d="M1269.75 84.09L1445.26 191.8" stroke="hsl(228.5, 77.2%, 51.5%)" stroke-width="1.5"></path><path d="M1307.69 214.1L1307.69 214.1" stroke="hsl(228.5, 77.2%, 51.5%)" stroke-width="1.5"></path><path d="M1307.69 214.1L1445.26 191.8" stroke="hsl(228.5, 77.2%, 51.5%)" stroke-width="1.5"></path><path d="M1307.69 214.1L1113.31 251.75" stroke="hsl(228.5, 77.2%, 51.5%)" stroke-width="1.5"></path><path d="M1307.69 214.1L1412.48 399.02" stroke="hsl(228.5, 77.2%, 51.5%)" stroke-width="1.5"></path><path d="M1445.26 191.8L1445.26 191.8" stroke="hsl(228.5, 77.2%, 51.5%)" stroke-width="1.5"></path><path d="M1445.26 191.8L1550.89 101.89" stroke="hsl(228.5, 77.2%, 51.5%)" stroke-width="1.5"></path><path d="M1443.57 644.42L1443.57 644.42" stroke="hsl(228.5, 77.2%, 51.5%)" stroke-width="1.5"></path><path d="M1443.57 644.42L1569.14 561.8" stroke="hsl(228.5, 77.2%, 51.5%)" stroke-width="1.5"></path><path d="M1443.57 644.42L1607.45 697.83" stroke="hsl(228.5, 77.2%, 51.5%)" stroke-width="1.5"></path><path d="M1574.15 -53.62L1574.15 -53.62" stroke="hsl(228.5, 77.2%, 51.5%)" stroke-width="1.5"></path><path d="M1574.15 -53.62L1550.89 101.89" stroke="hsl(228.5, 77.2%, 51.5%)" stroke-width="1.5"></path><path d="M1574.15 -53.62L1413.72 111.64" stroke="hsl(228.5, 77.2%, 51.5%)" stroke-width="1.5"></path><path d="M1574.15 -53.62L1590.16 211.24" stroke="hsl(228.5, 77.2%, 51.5%)" stroke-width="1.5"></path><path d="M1574.15 -53.62L1445.26 191.8" stroke="hsl(228.5, 77.2%, 51.5%)" stroke-width="1.5"></path><path d="M1550.89 101.89L1550.89 101.89" stroke="hsl(228.5, 77.2%, 51.5%)" stroke-width="1.5"></path><path d="M1550.89 101.89L1590.16 211.24" stroke="hsl(228.5, 77.2%, 51.5%)" stroke-width="1.5"></path><path d="M1550.89 101.89L1307.69 214.1" stroke="hsl(228.5, 77.2%, 51.5%)" stroke-width="1.5"></path><path d="M1590.16 211.24L1590.16 211.24" stroke="hsl(228.5, 77.2%, 51.5%)" stroke-width="1.5"></path><path d="M1590.16 211.24L1445.26 191.8" stroke="hsl(228.5, 77.2%, 51.5%)" stroke-width="1.5"></path><path d="M1569.14 561.8L1569.14 561.8" stroke="hsl(228.5, 77.2%, 51.5%)" stroke-width="1.5"></path><path d="M1569.14 561.8L1607.45 697.83" stroke="hsl(228.5, 77.2%, 51.5%)" stroke-width="1.5"></path><path d="M1607.45 697.83L1607.45 697.83" stroke="hsl(228.5, 77.2%, 51.5%)" stroke-width="1.5"></path><path d="M1607.45 697.83L1412.48 399.02" stroke="hsl(228.5, 77.2%, 51.5%)" stroke-width="1.5"></path><path d="M1607.45 697.83L1277.19 504.85" stroke="hsl(228.5, 77.2%, 51.5%)" stroke-width="1.5"></path><path d="M1607.45 697.83L1132.51 653.11" stroke="hsl(228.5, 77.2%, 51.5%)" stroke-width="1.5"></path><circle r="25" cx="65.66" cy="668.67" fill="url(&quot;#SvgjsRadialGradient1877&quot;)"></circle><circle r="25" cx="339.27" cy="641.82" fill="url(&quot;#SvgjsRadialGradient1877&quot;)"></circle><circle r="25" cx="491.37" cy="560.14" fill="url(&quot;#SvgjsRadialGradient1877&quot;)"></circle><circle r="25" cx="659.44" cy="639.75" fill="url(&quot;#SvgjsRadialGradient1877&quot;)"></circle><circle r="25" cx="843.59" cy="403.06" fill="url(&quot;#SvgjsRadialGradient1877&quot;)"></circle><circle r="25" cx="1093.03" cy="410.33" fill="url(&quot;#SvgjsRadialGradient1877&quot;)"></circle><circle r="25" cx="1241.4" cy="375.45" fill="url(&quot;#SvgjsRadialGradient1877&quot;)"></circle><circle r="25" cx="1277.19" cy="504.85" fill="url(&quot;#SvgjsRadialGradient1877&quot;)"></circle><circle r="25" cx="1431.06" cy="-38.25" fill="url(&quot;#SvgjsRadialGradient1877&quot;)"></circle><circle r="25" cx="1413.72" cy="111.64" fill="url(&quot;#SvgjsRadialGradient1877&quot;)"></circle><circle r="25" cx="1412.48" cy="399.02" fill="url(&quot;#SvgjsRadialGradient1877&quot;)"></circle><circle r="25" cx="1395.86" cy="534.95" fill="url(&quot;#SvgjsRadialGradient1877&quot;)"></circle><circle r="5" cx="-102.1" cy="502.92" fill="#8b9ad9"></circle><circle r="5" cx="-38.79" cy="666.57" fill="#8b9ad9"></circle><circle r="5" cx="71.74" cy="508.98" fill="#8b9ad9"></circle><circle r="5" cx="210.28" cy="544.5" fill="#8b9ad9"></circle><circle r="5" cx="204.52" cy="672.69" fill="#8b9ad9"></circle><circle r="5" cx="538.7" cy="658" fill="#8b9ad9"></circle><circle r="5" cx="653.02" cy="533.1" fill="#8b9ad9"></circle><circle r="5" cx="816.27" cy="504.42" fill="#8b9ad9"></circle><circle r="5" cx="806.46" cy="657.86" fill="#8b9ad9"></circle><circle r="5" cx="953.4" cy="350.58" fill="#8b9ad9"></circle><circle r="5" cx="961.7" cy="506.99" fill="#8b9ad9"></circle><circle r="5" cx="1113.31" cy="251.75" fill="#8b9ad9"></circle><circle r="5" cx="1109.1" cy="498.8" fill="#8b9ad9"></circle><circle r="5" cx="1132.51" cy="653.11" fill="#8b9ad9"></circle><circle r="5" cx="1269.75" cy="84.09" fill="#8b9ad9"></circle><circle r="5" cx="1307.69" cy="214.1" fill="#8b9ad9"></circle><circle r="5" cx="1445.26" cy="191.8" fill="#8b9ad9"></circle><circle r="5" cx="1443.57" cy="644.42" fill="#8b9ad9"></circle><circle r="5" cx="1574.15" cy="-53.62" fill="#8b9ad9"></circle><circle r="5" cx="1550.89" cy="101.89" fill="#8b9ad9"></circle><circle r="5" cx="1590.16" cy="211.24" fill="#8b9ad9"></circle><circle r="5" cx="1569.14" cy="561.8" fill="#8b9ad9"></circle><circle r="5" cx="1607.45" cy="697.83" fill="#8b9ad9"></circle></g><defs><mask id="SvgjsMask1875"><rect width="1440" height="560" fill="#ffffff"></rect></mask><linearGradient x1="50%" y1="0%" x2="50%" y2="100%" gradientUnits="userSpaceOnUse" id="SvgjsLinearGradient1876"><stop stop-color="#0e2a47" offset="0"></stop><stop stop-color="rgba(255, 156, 62, 1)" offset="1"></stop></linearGradient><radialGradient id="SvgjsRadialGradient1877"><stop stop-color="#ffffff" offset="0.1"></stop><stop stop-color="#1735b3" offset="0.2"></stop><stop stop-color="rgba(23, 53, 179, 0)" offset="1"></stop></radialGradient></defs></svg>